<?xml version="1.0" encoding="UTF-8" standalone="no"?>
<svg
   xmlns:dc="http://purl.org/dc/elements/1.1/"
   xmlns:cc="http://creativecommons.org/ns#"
   xmlns:rdf="http://www.w3.org/1999/02/22-rdf-syntax-ns#"
   xmlns:svg="http://www.w3.org/2000/svg"
   xmlns="http://www.w3.org/2000/svg"
   viewBox="206.4716 110.4636 406.24 406.24"
   id="svg7"
   version="1.1">
  <metadata
     id="metadata13">
    <rdf:RDF>
      <cc:Work
         rdf:about="">
        <dc:format>image/svg+xml</dc:format>
        <dc:type
           rdf:resource="http://purl.org/dc/dcmitype/StillImage" />
      </cc:Work>
    </rdf:RDF>
  </metadata>
  <defs
     id="defs11" />
  <g
     id="Layer1000">
    <path
       id="path2"
       style="fill:#ffec00;fill-rule:evenodd"
       d="m 297.3948,110.4636 h 224.3904 c 50.0077,0 90.9232,40.9154 90.9232,90.9232 v 224.3904 c 0,50.0077 -40.9155,90.9231 -90.9232,90.9231 H 297.3948 c -50.0078,0 -90.9232,-40.9154 -90.9232,-90.9231 V 201.3868 c 0,-50.0078 40.9154,-90.9232 90.9232,-90.9232 z" />
    <path
       id="path4"
       style="fill:#ffffff;fill-rule:evenodd;stroke:#131510;stroke-width:14.17319965;stroke-linecap:butt;stroke-linejoin:miter;stroke-dasharray:none"
       d="m 330.7285,289.5495 c -1.9282,-21.9224 -3.12,-40.5959 -0.2521,-55.6628 3.2045,-16.8359 11.0773,-29.1971 20.5194,-37.1181 18.7268,-15.1157 37.8734,-22.9744 57.4656,-23.1124 19.5524,-0.1376 44.3826,8.1326 63.5145,25.61 19.0422,22.4002 21.5966,50.3642 15.3232,89.9504 3.1208,5.0345 11.2444,3.9287 25.0557,-1.1113 7.8854,-1.4138 13.6811,2.2292 15.9243,10.0005 -5.2871,8.4134 -15.4241,12.9962 -27.8396,15.7784 -11.3423,4.6934 -12.4884,13.4924 -6.9037,25.0014 14.6309,24.5592 33.2154,42.8896 59.132,49.6687 7.6751,1.2254 7.0243,4.7006 0.4455,9.7781 -10.3028,5.4627 -22.696,8.5566 -35.0776,11.0558 l -5.9013,18.7232 c -31.9933,-6.3339 -49.3742,-1.9635 -57.9067,8.8893 -30.1032,23.8784 -58.093,21.7534 -84.6327,1.7778 -15.6443,-13.0136 -36.5087,-17.8023 -61.3586,-10.5558 l -7.6838,-19.6675 c -16.2486,-0.329 -38.3543,-6.116 -40.5345,-18.4452 27.2952,-4.7126 56.2238,-29.8443 67.3721,-54.8909 3.0117,-9.4048 0.5893,-15.4851 -5.0112,-18.6674 -9.5026,-5.4816 -22.4858,-5.2708 -29.6215,-16.1672 -5.0857,-7.766 1.3683,-13.0105 12.6949,-11.8338 11.0772,3.773 20.1388,4.9312 25.2761,0.9988 z" />
  </g>
</svg>
